<mxfile host="app.diagrams.net" modified="2023-08-01T12:27:24.628Z" agent="Mozilla/5.0 (Windows NT 10.0; Win64; x64) AppleWebKit/537.36 (KHTML, like Gecko) Chrome/115.0.0.0 Safari/537.36" etag="l3KSNbdiUXYBMTh1ynAt" version="21.6.6" type="github">
  <diagram name="Page-1" id="dtunkNTb8zr2kekEWjOD">
    <mxGraphModel dx="2227" dy="755" grid="1" gridSize="10" guides="1" tooltips="1" connect="1" arrows="1" fold="1" page="1" pageScale="1" pageWidth="827" pageHeight="1169" math="0" shadow="0">
      <root>
        <mxCell id="0" />
        <mxCell id="1" parent="0" />
        <mxCell id="l33ZeKzNZCgtsfxWotkb-139" value="" style="rounded=0;whiteSpace=wrap;html=1;" vertex="1" parent="1">
          <mxGeometry x="1650" y="50" width="470" height="750" as="geometry" />
        </mxCell>
        <mxCell id="l33ZeKzNZCgtsfxWotkb-1" value="" style="rounded=0;whiteSpace=wrap;html=1;" vertex="1" parent="1">
          <mxGeometry x="160" y="40" width="810" height="890" as="geometry" />
        </mxCell>
        <mxCell id="l33ZeKzNZCgtsfxWotkb-4" value="&lt;span style=&quot;font-size: 14px;&quot;&gt;&lt;b&gt;Platform System&lt;/b&gt;&lt;/span&gt;" style="text;html=1;align=center;verticalAlign=middle;resizable=0;points=[];autosize=1;strokeColor=none;fillColor=none;" vertex="1" parent="1">
          <mxGeometry x="500" y="40" width="130" height="30" as="geometry" />
        </mxCell>
        <mxCell id="l33ZeKzNZCgtsfxWotkb-74" style="rounded=0;orthogonalLoop=1;jettySize=auto;html=1;exitX=0.5;exitY=0.5;exitDx=0;exitDy=0;exitPerimeter=0;entryX=0.5;entryY=0;entryDx=0;entryDy=0;endArrow=none;endFill=0;" edge="1" parent="1" source="l33ZeKzNZCgtsfxWotkb-6" target="l33ZeKzNZCgtsfxWotkb-7">
          <mxGeometry relative="1" as="geometry">
            <Array as="points">
              <mxPoint x="270" y="70" />
            </Array>
          </mxGeometry>
        </mxCell>
        <mxCell id="l33ZeKzNZCgtsfxWotkb-88" style="rounded=0;orthogonalLoop=1;jettySize=auto;html=1;exitX=0.5;exitY=0.5;exitDx=0;exitDy=0;exitPerimeter=0;entryX=0;entryY=0;entryDx=0;entryDy=0;endArrow=none;endFill=0;" edge="1" parent="1" source="l33ZeKzNZCgtsfxWotkb-6" target="l33ZeKzNZCgtsfxWotkb-35">
          <mxGeometry relative="1" as="geometry" />
        </mxCell>
        <mxCell id="l33ZeKzNZCgtsfxWotkb-89" style="rounded=0;orthogonalLoop=1;jettySize=auto;html=1;exitX=0.5;exitY=0.5;exitDx=0;exitDy=0;exitPerimeter=0;entryX=0;entryY=0;entryDx=0;entryDy=0;endArrow=none;endFill=0;" edge="1" parent="1" source="l33ZeKzNZCgtsfxWotkb-6" target="l33ZeKzNZCgtsfxWotkb-30">
          <mxGeometry relative="1" as="geometry" />
        </mxCell>
        <mxCell id="l33ZeKzNZCgtsfxWotkb-90" style="rounded=0;orthogonalLoop=1;jettySize=auto;html=1;exitX=0.5;exitY=0.5;exitDx=0;exitDy=0;exitPerimeter=0;entryX=0.5;entryY=0;entryDx=0;entryDy=0;endArrow=none;endFill=0;" edge="1" parent="1" source="l33ZeKzNZCgtsfxWotkb-6" target="l33ZeKzNZCgtsfxWotkb-51">
          <mxGeometry relative="1" as="geometry" />
        </mxCell>
        <mxCell id="l33ZeKzNZCgtsfxWotkb-6" value="Manager" style="shape=umlActor;verticalLabelPosition=bottom;verticalAlign=top;html=1;outlineConnect=0;" vertex="1" parent="1">
          <mxGeometry y="190" width="30" height="60" as="geometry" />
        </mxCell>
        <mxCell id="l33ZeKzNZCgtsfxWotkb-18" value="&amp;lt;&amp;lt;depends on&amp;gt;&amp;gt;" style="edgeStyle=orthogonalEdgeStyle;rounded=0;orthogonalLoop=1;jettySize=auto;html=1;exitX=0;exitY=0.5;exitDx=0;exitDy=0;" edge="1" parent="1" source="l33ZeKzNZCgtsfxWotkb-7" target="l33ZeKzNZCgtsfxWotkb-14">
          <mxGeometry relative="1" as="geometry" />
        </mxCell>
        <mxCell id="l33ZeKzNZCgtsfxWotkb-7" value="login" style="ellipse;whiteSpace=wrap;html=1;" vertex="1" parent="1">
          <mxGeometry x="500" y="100" width="140" height="70" as="geometry" />
        </mxCell>
        <mxCell id="l33ZeKzNZCgtsfxWotkb-9" value="&amp;lt;&amp;lt;depends on&amp;gt;&amp;gt;" style="edgeStyle=orthogonalEdgeStyle;rounded=0;orthogonalLoop=1;jettySize=auto;html=1;dashed=1;" edge="1" parent="1" source="l33ZeKzNZCgtsfxWotkb-8" target="l33ZeKzNZCgtsfxWotkb-7">
          <mxGeometry relative="1" as="geometry" />
        </mxCell>
        <mxCell id="l33ZeKzNZCgtsfxWotkb-8" value="Manage Profile" style="ellipse;whiteSpace=wrap;html=1;" vertex="1" parent="1">
          <mxGeometry x="770" y="100" width="140" height="70" as="geometry" />
        </mxCell>
        <mxCell id="l33ZeKzNZCgtsfxWotkb-75" style="rounded=0;orthogonalLoop=1;jettySize=auto;html=1;exitX=0.5;exitY=0.5;exitDx=0;exitDy=0;exitPerimeter=0;entryX=0;entryY=0.5;entryDx=0;entryDy=0;strokeColor=#b85450;fillColor=#f8cecc;endArrow=none;endFill=0;strokeWidth=3;" edge="1" parent="1" source="l33ZeKzNZCgtsfxWotkb-10" target="l33ZeKzNZCgtsfxWotkb-14">
          <mxGeometry relative="1" as="geometry" />
        </mxCell>
        <mxCell id="l33ZeKzNZCgtsfxWotkb-78" style="rounded=0;orthogonalLoop=1;jettySize=auto;html=1;exitX=0.5;exitY=0.5;exitDx=0;exitDy=0;exitPerimeter=0;entryX=0;entryY=1;entryDx=0;entryDy=0;strokeColor=#b85450;fillColor=#f8cecc;endArrow=none;endFill=0;strokeWidth=3;" edge="1" parent="1" source="l33ZeKzNZCgtsfxWotkb-10" target="l33ZeKzNZCgtsfxWotkb-7">
          <mxGeometry relative="1" as="geometry" />
        </mxCell>
        <mxCell id="l33ZeKzNZCgtsfxWotkb-79" style="rounded=0;orthogonalLoop=1;jettySize=auto;html=1;exitX=0.5;exitY=0.5;exitDx=0;exitDy=0;exitPerimeter=0;strokeColor=#b85450;fillColor=#f8cecc;endArrow=none;endFill=0;strokeWidth=3;" edge="1" parent="1" source="l33ZeKzNZCgtsfxWotkb-10" target="l33ZeKzNZCgtsfxWotkb-51">
          <mxGeometry relative="1" as="geometry" />
        </mxCell>
        <mxCell id="l33ZeKzNZCgtsfxWotkb-80" style="rounded=0;orthogonalLoop=1;jettySize=auto;html=1;exitX=0.5;exitY=0.5;exitDx=0;exitDy=0;exitPerimeter=0;entryX=0;entryY=0;entryDx=0;entryDy=0;strokeColor=#b85450;fillColor=#f8cecc;endArrow=none;endFill=0;strokeWidth=3;" edge="1" parent="1" source="l33ZeKzNZCgtsfxWotkb-10" target="l33ZeKzNZCgtsfxWotkb-50">
          <mxGeometry relative="1" as="geometry" />
        </mxCell>
        <mxCell id="l33ZeKzNZCgtsfxWotkb-83" style="rounded=0;orthogonalLoop=1;jettySize=auto;html=1;exitX=0.5;exitY=0.5;exitDx=0;exitDy=0;exitPerimeter=0;entryX=0;entryY=0.5;entryDx=0;entryDy=0;strokeColor=#b85450;fillColor=#f8cecc;endArrow=none;endFill=0;strokeWidth=3;" edge="1" parent="1" source="l33ZeKzNZCgtsfxWotkb-10" target="l33ZeKzNZCgtsfxWotkb-35">
          <mxGeometry relative="1" as="geometry" />
        </mxCell>
        <mxCell id="l33ZeKzNZCgtsfxWotkb-10" value="Academic Manager" style="shape=umlActor;verticalLabelPosition=bottom;verticalAlign=top;html=1;outlineConnect=0;" vertex="1" parent="1">
          <mxGeometry y="380" width="30" height="60" as="geometry" />
        </mxCell>
        <mxCell id="l33ZeKzNZCgtsfxWotkb-93" style="rounded=0;orthogonalLoop=1;jettySize=auto;html=1;exitX=0.5;exitY=0.5;exitDx=0;exitDy=0;exitPerimeter=0;entryX=1;entryY=0.5;entryDx=0;entryDy=0;endArrow=none;endFill=0;fillColor=#e1d5e7;strokeColor=#9673a6;" edge="1" parent="1" source="l33ZeKzNZCgtsfxWotkb-11" target="l33ZeKzNZCgtsfxWotkb-48">
          <mxGeometry relative="1" as="geometry">
            <Array as="points" />
          </mxGeometry>
        </mxCell>
        <mxCell id="l33ZeKzNZCgtsfxWotkb-94" style="rounded=0;orthogonalLoop=1;jettySize=auto;html=1;exitX=0.5;exitY=0.5;exitDx=0;exitDy=0;exitPerimeter=0;entryX=1;entryY=1;entryDx=0;entryDy=0;endArrow=none;endFill=0;fillColor=#e1d5e7;strokeColor=#9673a6;" edge="1" parent="1" source="l33ZeKzNZCgtsfxWotkb-11" target="l33ZeKzNZCgtsfxWotkb-7">
          <mxGeometry relative="1" as="geometry">
            <Array as="points">
              <mxPoint x="940" y="250" />
            </Array>
          </mxGeometry>
        </mxCell>
        <mxCell id="l33ZeKzNZCgtsfxWotkb-97" style="rounded=0;orthogonalLoop=1;jettySize=auto;html=1;exitX=0.5;exitY=0.5;exitDx=0;exitDy=0;exitPerimeter=0;entryX=1;entryY=0;entryDx=0;entryDy=0;endArrow=none;endFill=0;fillColor=#e1d5e7;strokeColor=#9673a6;" edge="1" parent="1" source="l33ZeKzNZCgtsfxWotkb-11" target="l33ZeKzNZCgtsfxWotkb-49">
          <mxGeometry relative="1" as="geometry" />
        </mxCell>
        <mxCell id="l33ZeKzNZCgtsfxWotkb-11" value="Student" style="shape=umlActor;verticalLabelPosition=bottom;verticalAlign=top;html=1;outlineConnect=0;" vertex="1" parent="1">
          <mxGeometry x="1040" y="330" width="30" height="60" as="geometry" />
        </mxCell>
        <mxCell id="l33ZeKzNZCgtsfxWotkb-84" style="rounded=0;orthogonalLoop=1;jettySize=auto;html=1;exitX=0.5;exitY=0.5;exitDx=0;exitDy=0;exitPerimeter=0;entryX=0;entryY=0.5;entryDx=0;entryDy=0;strokeColor=#82b366;fillColor=#d5e8d4;endArrow=none;endFill=0;strokeWidth=3;" edge="1" parent="1" source="l33ZeKzNZCgtsfxWotkb-12" target="l33ZeKzNZCgtsfxWotkb-50">
          <mxGeometry relative="1" as="geometry" />
        </mxCell>
        <mxCell id="l33ZeKzNZCgtsfxWotkb-85" style="rounded=0;orthogonalLoop=1;jettySize=auto;html=1;exitX=0.5;exitY=0.5;exitDx=0;exitDy=0;exitPerimeter=0;entryX=0;entryY=0.5;entryDx=0;entryDy=0;strokeColor=#82b366;fillColor=#d5e8d4;endArrow=none;endFill=0;strokeWidth=3;" edge="1" parent="1" source="l33ZeKzNZCgtsfxWotkb-12" target="l33ZeKzNZCgtsfxWotkb-51">
          <mxGeometry relative="1" as="geometry" />
        </mxCell>
        <mxCell id="l33ZeKzNZCgtsfxWotkb-86" style="rounded=0;orthogonalLoop=1;jettySize=auto;html=1;exitX=0.5;exitY=0.5;exitDx=0;exitDy=0;exitPerimeter=0;entryX=0;entryY=0.5;entryDx=0;entryDy=0;strokeColor=#82b366;fillColor=#d5e8d4;endArrow=none;endFill=0;strokeWidth=3;" edge="1" parent="1" source="l33ZeKzNZCgtsfxWotkb-12" target="l33ZeKzNZCgtsfxWotkb-30">
          <mxGeometry relative="1" as="geometry" />
        </mxCell>
        <mxCell id="l33ZeKzNZCgtsfxWotkb-87" style="rounded=0;orthogonalLoop=1;jettySize=auto;html=1;exitX=0.5;exitY=0.5;exitDx=0;exitDy=0;exitPerimeter=0;entryX=0;entryY=0.5;entryDx=0;entryDy=0;strokeColor=#82b366;fillColor=#d5e8d4;endArrow=none;endFill=0;strokeWidth=3;" edge="1" parent="1" source="l33ZeKzNZCgtsfxWotkb-12" target="l33ZeKzNZCgtsfxWotkb-35">
          <mxGeometry relative="1" as="geometry" />
        </mxCell>
        <mxCell id="l33ZeKzNZCgtsfxWotkb-91" style="rounded=0;orthogonalLoop=1;jettySize=auto;html=1;exitX=0.5;exitY=0.5;exitDx=0;exitDy=0;exitPerimeter=0;entryX=0;entryY=1;entryDx=0;entryDy=0;fillColor=#d5e8d4;strokeColor=#82b366;endArrow=none;endFill=0;strokeWidth=3;" edge="1" parent="1" source="l33ZeKzNZCgtsfxWotkb-12" target="l33ZeKzNZCgtsfxWotkb-7">
          <mxGeometry relative="1" as="geometry" />
        </mxCell>
        <mxCell id="l33ZeKzNZCgtsfxWotkb-106" style="rounded=0;orthogonalLoop=1;jettySize=auto;html=1;exitX=0.5;exitY=0.5;exitDx=0;exitDy=0;exitPerimeter=0;endArrow=none;endFill=0;fillColor=#d5e8d4;strokeColor=#82b366;strokeWidth=3;" edge="1" parent="1" source="l33ZeKzNZCgtsfxWotkb-12" target="l33ZeKzNZCgtsfxWotkb-14">
          <mxGeometry relative="1" as="geometry" />
        </mxCell>
        <mxCell id="l33ZeKzNZCgtsfxWotkb-12" value="Academic Supervisor" style="shape=umlActor;verticalLabelPosition=bottom;verticalAlign=top;html=1;outlineConnect=0;" vertex="1" parent="1">
          <mxGeometry y="600" width="30" height="60" as="geometry" />
        </mxCell>
        <mxCell id="l33ZeKzNZCgtsfxWotkb-96" style="rounded=0;orthogonalLoop=1;jettySize=auto;html=1;exitX=0.5;exitY=0.5;exitDx=0;exitDy=0;exitPerimeter=0;endArrow=none;endFill=0;fillColor=#dae8fc;strokeColor=#6c8ebf;strokeWidth=3;" edge="1" parent="1" source="l33ZeKzNZCgtsfxWotkb-13" target="l33ZeKzNZCgtsfxWotkb-49">
          <mxGeometry relative="1" as="geometry" />
        </mxCell>
        <mxCell id="l33ZeKzNZCgtsfxWotkb-98" style="rounded=0;orthogonalLoop=1;jettySize=auto;html=1;exitX=0.5;exitY=0.5;exitDx=0;exitDy=0;exitPerimeter=0;entryX=1;entryY=0.5;entryDx=0;entryDy=0;endArrow=none;endFill=0;fillColor=#dae8fc;strokeColor=#6c8ebf;strokeWidth=3;" edge="1" parent="1" source="l33ZeKzNZCgtsfxWotkb-13" target="l33ZeKzNZCgtsfxWotkb-53">
          <mxGeometry relative="1" as="geometry" />
        </mxCell>
        <mxCell id="l33ZeKzNZCgtsfxWotkb-99" style="rounded=0;orthogonalLoop=1;jettySize=auto;html=1;exitX=0.5;exitY=0.5;exitDx=0;exitDy=0;exitPerimeter=0;entryX=1;entryY=1;entryDx=0;entryDy=0;endArrow=none;endFill=0;fillColor=#dae8fc;strokeColor=#6c8ebf;strokeWidth=3;" edge="1" parent="1" source="l33ZeKzNZCgtsfxWotkb-13" target="l33ZeKzNZCgtsfxWotkb-7">
          <mxGeometry relative="1" as="geometry">
            <Array as="points">
              <mxPoint x="760" y="460" />
            </Array>
          </mxGeometry>
        </mxCell>
        <mxCell id="l33ZeKzNZCgtsfxWotkb-107" style="rounded=0;orthogonalLoop=1;jettySize=auto;html=1;exitX=0.5;exitY=0.5;exitDx=0;exitDy=0;exitPerimeter=0;endArrow=none;endFill=0;fillColor=#dae8fc;strokeColor=#6c8ebf;strokeWidth=3;" edge="1" parent="1" source="l33ZeKzNZCgtsfxWotkb-13" target="l33ZeKzNZCgtsfxWotkb-14">
          <mxGeometry relative="1" as="geometry">
            <Array as="points">
              <mxPoint x="520" y="410" />
            </Array>
          </mxGeometry>
        </mxCell>
        <mxCell id="l33ZeKzNZCgtsfxWotkb-108" style="rounded=0;orthogonalLoop=1;jettySize=auto;html=1;exitX=0.5;exitY=0.5;exitDx=0;exitDy=0;exitPerimeter=0;endArrow=none;endFill=0;fillColor=#dae8fc;strokeColor=#6c8ebf;strokeWidth=3;" edge="1" parent="1" source="l33ZeKzNZCgtsfxWotkb-13" target="l33ZeKzNZCgtsfxWotkb-35">
          <mxGeometry relative="1" as="geometry">
            <Array as="points">
              <mxPoint x="700" y="450" />
            </Array>
          </mxGeometry>
        </mxCell>
        <mxCell id="l33ZeKzNZCgtsfxWotkb-13" value="Instructor" style="shape=umlActor;verticalLabelPosition=bottom;verticalAlign=top;html=1;outlineConnect=0;" vertex="1" parent="1">
          <mxGeometry x="1040" y="555" width="30" height="60" as="geometry" />
        </mxCell>
        <mxCell id="l33ZeKzNZCgtsfxWotkb-14" value="Register with Platform" style="ellipse;whiteSpace=wrap;html=1;" vertex="1" parent="1">
          <mxGeometry x="230" y="100" width="140" height="70" as="geometry" />
        </mxCell>
        <mxCell id="l33ZeKzNZCgtsfxWotkb-29" value="Manage Permissions" style="ellipse;whiteSpace=wrap;html=1;" vertex="1" parent="1">
          <mxGeometry x="510" y="610" width="140" height="70" as="geometry" />
        </mxCell>
        <mxCell id="l33ZeKzNZCgtsfxWotkb-30" value="Define Plans" style="ellipse;whiteSpace=wrap;html=1;" vertex="1" parent="1">
          <mxGeometry x="500" y="450" width="140" height="70" as="geometry" />
        </mxCell>
        <mxCell id="l33ZeKzNZCgtsfxWotkb-34" value="Manage Requests" style="ellipse;whiteSpace=wrap;html=1;" vertex="1" parent="1">
          <mxGeometry x="510" y="790" width="140" height="70" as="geometry" />
        </mxCell>
        <mxCell id="l33ZeKzNZCgtsfxWotkb-35" value="Monitoring" style="ellipse;whiteSpace=wrap;html=1;" vertex="1" parent="1">
          <mxGeometry x="500" y="290" width="140" height="70" as="geometry" />
        </mxCell>
        <mxCell id="l33ZeKzNZCgtsfxWotkb-37" value="Level 0" style="text;html=1;align=center;verticalAlign=middle;resizable=0;points=[];autosize=1;strokeColor=none;fillColor=none;" vertex="1" parent="1">
          <mxGeometry x="540" y="10" width="60" height="30" as="geometry" />
        </mxCell>
        <mxCell id="l33ZeKzNZCgtsfxWotkb-95" style="edgeStyle=orthogonalEdgeStyle;rounded=0;orthogonalLoop=1;jettySize=auto;html=1;exitX=0.5;exitY=1;exitDx=0;exitDy=0;dashed=1;" edge="1" parent="1" source="l33ZeKzNZCgtsfxWotkb-48" target="l33ZeKzNZCgtsfxWotkb-52">
          <mxGeometry relative="1" as="geometry" />
        </mxCell>
        <mxCell id="l33ZeKzNZCgtsfxWotkb-103" value="&amp;lt;&amp;lt;include&amp;gt;&amp;gt;" style="edgeLabel;html=1;align=center;verticalAlign=middle;resizable=0;points=[];" vertex="1" connectable="0" parent="l33ZeKzNZCgtsfxWotkb-95">
          <mxGeometry x="-0.2417" y="-1" relative="1" as="geometry">
            <mxPoint as="offset" />
          </mxGeometry>
        </mxCell>
        <mxCell id="l33ZeKzNZCgtsfxWotkb-48" value="Browse Courses" style="ellipse;whiteSpace=wrap;html=1;" vertex="1" parent="1">
          <mxGeometry x="760" y="250" width="140" height="70" as="geometry" />
        </mxCell>
        <mxCell id="l33ZeKzNZCgtsfxWotkb-49" value="Submit Reports" style="ellipse;whiteSpace=wrap;html=1;" vertex="1" parent="1">
          <mxGeometry x="770" y="530" width="140" height="70" as="geometry" />
        </mxCell>
        <mxCell id="l33ZeKzNZCgtsfxWotkb-50" value="Manage Maps" style="ellipse;whiteSpace=wrap;html=1;" vertex="1" parent="1">
          <mxGeometry x="230" y="790" width="140" height="70" as="geometry" />
        </mxCell>
        <mxCell id="l33ZeKzNZCgtsfxWotkb-81" value="&amp;lt;&amp;lt;include&amp;gt;&amp;gt;" style="edgeStyle=orthogonalEdgeStyle;rounded=0;orthogonalLoop=1;jettySize=auto;html=1;exitX=1;exitY=0.5;exitDx=0;exitDy=0;dashed=1;" edge="1" parent="1" source="l33ZeKzNZCgtsfxWotkb-51" target="l33ZeKzNZCgtsfxWotkb-29">
          <mxGeometry relative="1" as="geometry" />
        </mxCell>
        <mxCell id="l33ZeKzNZCgtsfxWotkb-82" value="&amp;lt;&amp;lt;include&amp;gt;&amp;gt;" style="rounded=0;orthogonalLoop=1;jettySize=auto;html=1;exitX=1;exitY=1;exitDx=0;exitDy=0;entryX=0;entryY=0;entryDx=0;entryDy=0;dashed=1;" edge="1" parent="1" source="l33ZeKzNZCgtsfxWotkb-51" target="l33ZeKzNZCgtsfxWotkb-34">
          <mxGeometry relative="1" as="geometry" />
        </mxCell>
        <mxCell id="l33ZeKzNZCgtsfxWotkb-51" value="Infrastructure Management" style="ellipse;whiteSpace=wrap;html=1;" vertex="1" parent="1">
          <mxGeometry x="230" y="610" width="140" height="70" as="geometry" />
        </mxCell>
        <mxCell id="l33ZeKzNZCgtsfxWotkb-52" value="Enroll in Course" style="ellipse;whiteSpace=wrap;html=1;" vertex="1" parent="1">
          <mxGeometry x="760" y="380" width="140" height="70" as="geometry" />
        </mxCell>
        <mxCell id="l33ZeKzNZCgtsfxWotkb-102" value="&amp;lt;&amp;lt;include&amp;gt;&amp;gt;" style="edgeStyle=orthogonalEdgeStyle;rounded=0;orthogonalLoop=1;jettySize=auto;html=1;dashed=1;" edge="1" parent="1" source="l33ZeKzNZCgtsfxWotkb-53" target="l33ZeKzNZCgtsfxWotkb-101">
          <mxGeometry relative="1" as="geometry" />
        </mxCell>
        <mxCell id="l33ZeKzNZCgtsfxWotkb-53" value="Create Course" style="ellipse;whiteSpace=wrap;html=1;" vertex="1" parent="1">
          <mxGeometry x="780" y="660" width="140" height="70" as="geometry" />
        </mxCell>
        <mxCell id="l33ZeKzNZCgtsfxWotkb-77" style="rounded=0;orthogonalLoop=1;jettySize=auto;html=1;exitX=0.5;exitY=0.5;exitDx=0;exitDy=0;exitPerimeter=0;entryX=0;entryY=0.5;entryDx=0;entryDy=0;strokeColor=#b85450;fillColor=#f8cecc;endArrow=none;endFill=0;strokeWidth=3;" edge="1" parent="1" source="l33ZeKzNZCgtsfxWotkb-10" target="l33ZeKzNZCgtsfxWotkb-30">
          <mxGeometry relative="1" as="geometry">
            <mxPoint x="25" y="420" as="sourcePoint" />
            <mxPoint x="240" y="145" as="targetPoint" />
          </mxGeometry>
        </mxCell>
        <mxCell id="l33ZeKzNZCgtsfxWotkb-101" value="Upload Content" style="ellipse;whiteSpace=wrap;html=1;" vertex="1" parent="1">
          <mxGeometry x="780" y="790" width="140" height="70" as="geometry" />
        </mxCell>
        <mxCell id="l33ZeKzNZCgtsfxWotkb-110" value="Platform Manager System" style="text;html=1;align=center;verticalAlign=middle;resizable=0;points=[];autosize=1;strokeColor=none;fillColor=none;" vertex="1" parent="1">
          <mxGeometry x="1805" y="50" width="160" height="30" as="geometry" />
        </mxCell>
        <mxCell id="l33ZeKzNZCgtsfxWotkb-111" value="Level 0" style="text;html=1;align=center;verticalAlign=middle;resizable=0;points=[];autosize=1;strokeColor=none;fillColor=none;" vertex="1" parent="1">
          <mxGeometry x="1855" y="20" width="60" height="30" as="geometry" />
        </mxCell>
        <mxCell id="l33ZeKzNZCgtsfxWotkb-122" style="rounded=0;orthogonalLoop=1;jettySize=auto;html=1;exitX=0.5;exitY=0.5;exitDx=0;exitDy=0;exitPerimeter=0;entryX=0.5;entryY=0;entryDx=0;entryDy=0;endArrow=none;endFill=0;" edge="1" parent="1" source="l33ZeKzNZCgtsfxWotkb-126" target="l33ZeKzNZCgtsfxWotkb-128">
          <mxGeometry relative="1" as="geometry">
            <Array as="points" />
          </mxGeometry>
        </mxCell>
        <mxCell id="l33ZeKzNZCgtsfxWotkb-123" style="rounded=0;orthogonalLoop=1;jettySize=auto;html=1;exitX=0.5;exitY=0.5;exitDx=0;exitDy=0;exitPerimeter=0;entryX=0;entryY=0;entryDx=0;entryDy=0;endArrow=none;endFill=0;" edge="1" parent="1" source="l33ZeKzNZCgtsfxWotkb-126" target="l33ZeKzNZCgtsfxWotkb-135">
          <mxGeometry relative="1" as="geometry" />
        </mxCell>
        <mxCell id="l33ZeKzNZCgtsfxWotkb-124" style="rounded=0;orthogonalLoop=1;jettySize=auto;html=1;exitX=0.5;exitY=0.5;exitDx=0;exitDy=0;exitPerimeter=0;entryX=0;entryY=0;entryDx=0;entryDy=0;endArrow=none;endFill=0;" edge="1" parent="1" source="l33ZeKzNZCgtsfxWotkb-126" target="l33ZeKzNZCgtsfxWotkb-133">
          <mxGeometry relative="1" as="geometry" />
        </mxCell>
        <mxCell id="l33ZeKzNZCgtsfxWotkb-125" style="rounded=0;orthogonalLoop=1;jettySize=auto;html=1;exitX=0.5;exitY=0.5;exitDx=0;exitDy=0;exitPerimeter=0;entryX=0.5;entryY=0;entryDx=0;entryDy=0;endArrow=none;endFill=0;" edge="1" parent="1" source="l33ZeKzNZCgtsfxWotkb-126" target="l33ZeKzNZCgtsfxWotkb-138">
          <mxGeometry relative="1" as="geometry" />
        </mxCell>
        <mxCell id="l33ZeKzNZCgtsfxWotkb-126" value="Manager" style="shape=umlActor;verticalLabelPosition=bottom;verticalAlign=top;html=1;outlineConnect=0;" vertex="1" parent="1">
          <mxGeometry x="1480" y="395" width="30" height="60" as="geometry" />
        </mxCell>
        <mxCell id="l33ZeKzNZCgtsfxWotkb-128" value="login" style="ellipse;whiteSpace=wrap;html=1;" vertex="1" parent="1">
          <mxGeometry x="1685" y="110" width="140" height="70" as="geometry" />
        </mxCell>
        <mxCell id="l33ZeKzNZCgtsfxWotkb-129" value="&amp;lt;&amp;lt;depends on&amp;gt;&amp;gt;" style="edgeStyle=orthogonalEdgeStyle;rounded=0;orthogonalLoop=1;jettySize=auto;html=1;dashed=1;" edge="1" parent="1" source="l33ZeKzNZCgtsfxWotkb-130" target="l33ZeKzNZCgtsfxWotkb-128">
          <mxGeometry relative="1" as="geometry" />
        </mxCell>
        <mxCell id="l33ZeKzNZCgtsfxWotkb-130" value="Manage Profile" style="ellipse;whiteSpace=wrap;html=1;" vertex="1" parent="1">
          <mxGeometry x="1955" y="110" width="140" height="70" as="geometry" />
        </mxCell>
        <mxCell id="l33ZeKzNZCgtsfxWotkb-132" value="Manage Permissions" style="ellipse;whiteSpace=wrap;html=1;" vertex="1" parent="1">
          <mxGeometry x="1950" y="485" width="140" height="70" as="geometry" />
        </mxCell>
        <mxCell id="l33ZeKzNZCgtsfxWotkb-133" value="Define Plans" style="ellipse;whiteSpace=wrap;html=1;" vertex="1" parent="1">
          <mxGeometry x="1685" y="460" width="140" height="70" as="geometry" />
        </mxCell>
        <mxCell id="l33ZeKzNZCgtsfxWotkb-134" value="Manage Requests" style="ellipse;whiteSpace=wrap;html=1;" vertex="1" parent="1">
          <mxGeometry x="1950" y="680" width="140" height="70" as="geometry" />
        </mxCell>
        <mxCell id="l33ZeKzNZCgtsfxWotkb-135" value="Monitoring" style="ellipse;whiteSpace=wrap;html=1;" vertex="1" parent="1">
          <mxGeometry x="1685" y="290" width="140" height="70" as="geometry" />
        </mxCell>
        <mxCell id="l33ZeKzNZCgtsfxWotkb-136" value="&amp;lt;&amp;lt;include&amp;gt;&amp;gt;" style="edgeStyle=orthogonalEdgeStyle;rounded=0;orthogonalLoop=1;jettySize=auto;html=1;exitX=1;exitY=0.5;exitDx=0;exitDy=0;dashed=1;" edge="1" parent="1" source="l33ZeKzNZCgtsfxWotkb-138" target="l33ZeKzNZCgtsfxWotkb-132">
          <mxGeometry relative="1" as="geometry" />
        </mxCell>
        <mxCell id="l33ZeKzNZCgtsfxWotkb-137" value="&amp;lt;&amp;lt;include&amp;gt;&amp;gt;" style="rounded=0;orthogonalLoop=1;jettySize=auto;html=1;exitX=1;exitY=1;exitDx=0;exitDy=0;entryX=0;entryY=0;entryDx=0;entryDy=0;dashed=1;" edge="1" parent="1" source="l33ZeKzNZCgtsfxWotkb-138" target="l33ZeKzNZCgtsfxWotkb-134">
          <mxGeometry relative="1" as="geometry" />
        </mxCell>
        <mxCell id="l33ZeKzNZCgtsfxWotkb-138" value="Infrastructure Management" style="ellipse;whiteSpace=wrap;html=1;" vertex="1" parent="1">
          <mxGeometry x="1685" y="630" width="140" height="70" as="geometry" />
        </mxCell>
        <mxCell id="l33ZeKzNZCgtsfxWotkb-140" value="" style="rounded=0;whiteSpace=wrap;html=1;movable=1;resizable=1;rotatable=1;deletable=1;editable=1;locked=0;connectable=1;" vertex="1" parent="1">
          <mxGeometry x="2420" y="50" width="840" height="1300" as="geometry" />
        </mxCell>
        <mxCell id="l33ZeKzNZCgtsfxWotkb-141" value="Platform Manager System" style="text;html=1;align=center;verticalAlign=middle;resizable=0;points=[];autosize=1;strokeColor=none;fillColor=none;" vertex="1" parent="1">
          <mxGeometry x="2750" y="50" width="160" height="30" as="geometry" />
        </mxCell>
        <mxCell id="l33ZeKzNZCgtsfxWotkb-142" value="Level 1" style="text;html=1;align=center;verticalAlign=middle;resizable=0;points=[];autosize=1;strokeColor=none;fillColor=none;" vertex="1" parent="1">
          <mxGeometry x="2800" y="20" width="60" height="30" as="geometry" />
        </mxCell>
        <mxCell id="l33ZeKzNZCgtsfxWotkb-143" style="rounded=0;orthogonalLoop=1;jettySize=auto;html=1;exitX=0.5;exitY=0.5;exitDx=0;exitDy=0;exitPerimeter=0;entryX=0.5;entryY=0;entryDx=0;entryDy=0;endArrow=none;endFill=0;" edge="1" source="l33ZeKzNZCgtsfxWotkb-147" target="l33ZeKzNZCgtsfxWotkb-148" parent="1">
          <mxGeometry relative="1" as="geometry">
            <Array as="points" />
          </mxGeometry>
        </mxCell>
        <mxCell id="l33ZeKzNZCgtsfxWotkb-145" style="rounded=0;orthogonalLoop=1;jettySize=auto;html=1;exitX=0.5;exitY=0.5;exitDx=0;exitDy=0;exitPerimeter=0;entryX=0;entryY=0.5;entryDx=0;entryDy=0;endArrow=none;endFill=0;" edge="1" source="l33ZeKzNZCgtsfxWotkb-147" target="l33ZeKzNZCgtsfxWotkb-152" parent="1">
          <mxGeometry relative="1" as="geometry" />
        </mxCell>
        <mxCell id="l33ZeKzNZCgtsfxWotkb-146" style="rounded=0;orthogonalLoop=1;jettySize=auto;html=1;exitX=0.5;exitY=0.5;exitDx=0;exitDy=0;exitPerimeter=0;entryX=0.5;entryY=0;entryDx=0;entryDy=0;endArrow=none;endFill=0;" edge="1" source="l33ZeKzNZCgtsfxWotkb-147" target="l33ZeKzNZCgtsfxWotkb-157" parent="1">
          <mxGeometry relative="1" as="geometry" />
        </mxCell>
        <mxCell id="l33ZeKzNZCgtsfxWotkb-272" style="rounded=0;orthogonalLoop=1;jettySize=auto;html=1;exitX=0.5;exitY=0.5;exitDx=0;exitDy=0;exitPerimeter=0;entryX=0;entryY=0.5;entryDx=0;entryDy=0;endArrow=none;endFill=0;" edge="1" parent="1" source="l33ZeKzNZCgtsfxWotkb-147" target="l33ZeKzNZCgtsfxWotkb-193">
          <mxGeometry relative="1" as="geometry" />
        </mxCell>
        <mxCell id="l33ZeKzNZCgtsfxWotkb-273" style="rounded=0;orthogonalLoop=1;jettySize=auto;html=1;exitX=0.5;exitY=0.5;exitDx=0;exitDy=0;exitPerimeter=0;entryX=0;entryY=0.5;entryDx=0;entryDy=0;endArrow=none;endFill=0;" edge="1" parent="1" source="l33ZeKzNZCgtsfxWotkb-147" target="l33ZeKzNZCgtsfxWotkb-189">
          <mxGeometry relative="1" as="geometry" />
        </mxCell>
        <mxCell id="l33ZeKzNZCgtsfxWotkb-274" style="rounded=0;orthogonalLoop=1;jettySize=auto;html=1;exitX=0.5;exitY=0.5;exitDx=0;exitDy=0;exitPerimeter=0;entryX=0;entryY=0.5;entryDx=0;entryDy=0;endArrow=none;endFill=0;" edge="1" parent="1" source="l33ZeKzNZCgtsfxWotkb-147" target="l33ZeKzNZCgtsfxWotkb-196">
          <mxGeometry relative="1" as="geometry" />
        </mxCell>
        <mxCell id="l33ZeKzNZCgtsfxWotkb-275" style="rounded=0;orthogonalLoop=1;jettySize=auto;html=1;exitX=0.5;exitY=0.5;exitDx=0;exitDy=0;exitPerimeter=0;entryX=0;entryY=0.5;entryDx=0;entryDy=0;endArrow=none;endFill=0;" edge="1" parent="1" source="l33ZeKzNZCgtsfxWotkb-147" target="l33ZeKzNZCgtsfxWotkb-199">
          <mxGeometry relative="1" as="geometry" />
        </mxCell>
        <mxCell id="l33ZeKzNZCgtsfxWotkb-147" value="Manager" style="shape=umlActor;verticalLabelPosition=bottom;verticalAlign=top;html=1;outlineConnect=0;" vertex="1" parent="1">
          <mxGeometry x="2300" y="695" width="30" height="60" as="geometry" />
        </mxCell>
        <mxCell id="l33ZeKzNZCgtsfxWotkb-148" value="login" style="ellipse;whiteSpace=wrap;html=1;" vertex="1" parent="1">
          <mxGeometry x="2495" y="110" width="140" height="70" as="geometry" />
        </mxCell>
        <mxCell id="l33ZeKzNZCgtsfxWotkb-149" value="&amp;lt;&amp;lt;depends on&amp;gt;&amp;gt;" style="edgeStyle=orthogonalEdgeStyle;rounded=0;orthogonalLoop=1;jettySize=auto;html=1;dashed=1;" edge="1" source="l33ZeKzNZCgtsfxWotkb-150" target="l33ZeKzNZCgtsfxWotkb-148" parent="1">
          <mxGeometry relative="1" as="geometry" />
        </mxCell>
        <mxCell id="l33ZeKzNZCgtsfxWotkb-150" value="Manage Profile" style="ellipse;whiteSpace=wrap;html=1;" vertex="1" parent="1">
          <mxGeometry x="2767.5" y="110" width="140" height="70" as="geometry" />
        </mxCell>
        <mxCell id="l33ZeKzNZCgtsfxWotkb-169" value="&amp;lt;&amp;lt;include&amp;gt;&amp;gt;" style="rounded=0;orthogonalLoop=1;jettySize=auto;html=1;exitX=1;exitY=0.5;exitDx=0;exitDy=0;entryX=0;entryY=0.5;entryDx=0;entryDy=0;dashed=1;" edge="1" parent="1" source="l33ZeKzNZCgtsfxWotkb-151" target="l33ZeKzNZCgtsfxWotkb-160">
          <mxGeometry relative="1" as="geometry">
            <mxPoint x="2989.999999999999" y="455" as="targetPoint" />
          </mxGeometry>
        </mxCell>
        <mxCell id="l33ZeKzNZCgtsfxWotkb-151" value="Manage Permissions" style="ellipse;whiteSpace=wrap;html=1;" vertex="1" parent="1">
          <mxGeometry x="2767.5" y="945" width="140" height="70" as="geometry" />
        </mxCell>
        <mxCell id="l33ZeKzNZCgtsfxWotkb-152" value="Develop Strategic Plans" style="ellipse;whiteSpace=wrap;html=1;" vertex="1" parent="1">
          <mxGeometry x="2480" y="700" width="140" height="70" as="geometry" />
        </mxCell>
        <mxCell id="l33ZeKzNZCgtsfxWotkb-153" value="Handle Registration Request" style="ellipse;whiteSpace=wrap;html=1;" vertex="1" parent="1">
          <mxGeometry x="2767.5" y="1140" width="140" height="70" as="geometry" />
        </mxCell>
        <mxCell id="l33ZeKzNZCgtsfxWotkb-155" value="&amp;lt;&amp;lt;include&amp;gt;&amp;gt;" style="edgeStyle=orthogonalEdgeStyle;rounded=0;orthogonalLoop=1;jettySize=auto;html=1;exitX=1;exitY=0.5;exitDx=0;exitDy=0;dashed=1;" edge="1" source="l33ZeKzNZCgtsfxWotkb-157" target="l33ZeKzNZCgtsfxWotkb-151" parent="1">
          <mxGeometry relative="1" as="geometry" />
        </mxCell>
        <mxCell id="l33ZeKzNZCgtsfxWotkb-156" value="&amp;lt;&amp;lt;include&amp;gt;&amp;gt;" style="rounded=0;orthogonalLoop=1;jettySize=auto;html=1;exitX=1;exitY=1;exitDx=0;exitDy=0;entryX=0;entryY=0;entryDx=0;entryDy=0;dashed=1;" edge="1" source="l33ZeKzNZCgtsfxWotkb-157" target="l33ZeKzNZCgtsfxWotkb-153" parent="1">
          <mxGeometry relative="1" as="geometry" />
        </mxCell>
        <mxCell id="l33ZeKzNZCgtsfxWotkb-185" style="rounded=0;orthogonalLoop=1;jettySize=auto;html=1;exitX=0.5;exitY=1;exitDx=0;exitDy=0;entryX=0;entryY=0.5;entryDx=0;entryDy=0;dashed=1;" edge="1" parent="1" source="l33ZeKzNZCgtsfxWotkb-157" target="l33ZeKzNZCgtsfxWotkb-184">
          <mxGeometry relative="1" as="geometry" />
        </mxCell>
        <mxCell id="l33ZeKzNZCgtsfxWotkb-186" value="&amp;lt;&amp;lt;include&amp;gt;&amp;gt;" style="edgeLabel;html=1;align=center;verticalAlign=middle;resizable=0;points=[];" vertex="1" connectable="0" parent="l33ZeKzNZCgtsfxWotkb-185">
          <mxGeometry x="0.0203" y="1" relative="1" as="geometry">
            <mxPoint y="-1" as="offset" />
          </mxGeometry>
        </mxCell>
        <mxCell id="l33ZeKzNZCgtsfxWotkb-157" value="Manage Managers" style="ellipse;whiteSpace=wrap;html=1;" vertex="1" parent="1">
          <mxGeometry x="2502.5" y="1090" width="140" height="70" as="geometry" />
        </mxCell>
        <mxCell id="l33ZeKzNZCgtsfxWotkb-160" value="Remove Manager" style="ellipse;whiteSpace=wrap;html=1;" vertex="1" parent="1">
          <mxGeometry x="3037.5" y="900" width="140" height="70" as="geometry" />
        </mxCell>
        <mxCell id="l33ZeKzNZCgtsfxWotkb-164" value="&amp;lt;&amp;lt;depends on&amp;gt;&amp;gt;" style="edgeStyle=orthogonalEdgeStyle;rounded=0;orthogonalLoop=1;jettySize=auto;html=1;dashed=1;" edge="1" parent="1" source="l33ZeKzNZCgtsfxWotkb-163" target="l33ZeKzNZCgtsfxWotkb-153">
          <mxGeometry relative="1" as="geometry" />
        </mxCell>
        <mxCell id="l33ZeKzNZCgtsfxWotkb-163" value="Create Account" style="ellipse;whiteSpace=wrap;html=1;" vertex="1" parent="1">
          <mxGeometry x="3037.5" y="1140" width="140" height="70" as="geometry" />
        </mxCell>
        <mxCell id="l33ZeKzNZCgtsfxWotkb-170" value="&amp;lt;&amp;lt;extend&amp;gt;&amp;gt;" style="rounded=0;orthogonalLoop=1;jettySize=auto;html=1;exitX=0;exitY=0.5;exitDx=0;exitDy=0;dashed=1;entryX=1;entryY=0.5;entryDx=0;entryDy=0;" edge="1" parent="1" source="l33ZeKzNZCgtsfxWotkb-166" target="l33ZeKzNZCgtsfxWotkb-151">
          <mxGeometry relative="1" as="geometry">
            <mxPoint x="2860" y="519.9999999999999" as="targetPoint" />
          </mxGeometry>
        </mxCell>
        <mxCell id="l33ZeKzNZCgtsfxWotkb-166" value="Edit Manager Type" style="ellipse;whiteSpace=wrap;html=1;" vertex="1" parent="1">
          <mxGeometry x="3037.5" y="990" width="140" height="70" as="geometry" />
        </mxCell>
        <mxCell id="l33ZeKzNZCgtsfxWotkb-178" style="rounded=0;orthogonalLoop=1;jettySize=auto;html=1;exitX=0;exitY=0.5;exitDx=0;exitDy=0;entryX=1;entryY=0.5;entryDx=0;entryDy=0;dashed=1;" edge="1" parent="1" source="l33ZeKzNZCgtsfxWotkb-171" target="l33ZeKzNZCgtsfxWotkb-174">
          <mxGeometry relative="1" as="geometry">
            <mxPoint x="2790" y="490" as="targetPoint" />
          </mxGeometry>
        </mxCell>
        <mxCell id="l33ZeKzNZCgtsfxWotkb-181" value="&amp;lt;&amp;lt;extend&amp;gt;&amp;gt;" style="edgeLabel;html=1;align=center;verticalAlign=middle;resizable=0;points=[];" vertex="1" connectable="0" parent="l33ZeKzNZCgtsfxWotkb-178">
          <mxGeometry x="0.0209" y="2" relative="1" as="geometry">
            <mxPoint as="offset" />
          </mxGeometry>
        </mxCell>
        <mxCell id="l33ZeKzNZCgtsfxWotkb-171" value="Add Plan" style="ellipse;whiteSpace=wrap;html=1;" vertex="1" parent="1">
          <mxGeometry x="3030" y="590" width="140" height="70" as="geometry" />
        </mxCell>
        <mxCell id="l33ZeKzNZCgtsfxWotkb-177" style="rounded=0;orthogonalLoop=1;jettySize=auto;html=1;exitX=0;exitY=0.5;exitDx=0;exitDy=0;dashed=1;" edge="1" parent="1" source="l33ZeKzNZCgtsfxWotkb-172" target="l33ZeKzNZCgtsfxWotkb-174">
          <mxGeometry relative="1" as="geometry" />
        </mxCell>
        <mxCell id="l33ZeKzNZCgtsfxWotkb-182" value="&amp;lt;&amp;lt;extend&amp;gt;&amp;gt;" style="edgeLabel;html=1;align=center;verticalAlign=middle;resizable=0;points=[];" vertex="1" connectable="0" parent="l33ZeKzNZCgtsfxWotkb-177">
          <mxGeometry x="-0.1627" y="1" relative="1" as="geometry">
            <mxPoint as="offset" />
          </mxGeometry>
        </mxCell>
        <mxCell id="l33ZeKzNZCgtsfxWotkb-172" value="Edit Plan" style="ellipse;whiteSpace=wrap;html=1;" vertex="1" parent="1">
          <mxGeometry x="3030" y="690" width="140" height="70" as="geometry" />
        </mxCell>
        <mxCell id="l33ZeKzNZCgtsfxWotkb-179" style="rounded=0;orthogonalLoop=1;jettySize=auto;html=1;exitX=0;exitY=0.5;exitDx=0;exitDy=0;entryX=1;entryY=0.5;entryDx=0;entryDy=0;dashed=1;" edge="1" parent="1" source="l33ZeKzNZCgtsfxWotkb-173" target="l33ZeKzNZCgtsfxWotkb-174">
          <mxGeometry relative="1" as="geometry">
            <mxPoint x="2790" y="490" as="targetPoint" />
          </mxGeometry>
        </mxCell>
        <mxCell id="l33ZeKzNZCgtsfxWotkb-183" value="&amp;lt;&amp;lt;extend&amp;gt;&amp;gt;" style="edgeLabel;html=1;align=center;verticalAlign=middle;resizable=0;points=[];" vertex="1" connectable="0" parent="l33ZeKzNZCgtsfxWotkb-179">
          <mxGeometry x="-0.02" y="-4" relative="1" as="geometry">
            <mxPoint as="offset" />
          </mxGeometry>
        </mxCell>
        <mxCell id="l33ZeKzNZCgtsfxWotkb-173" value="Remove Plan" style="ellipse;whiteSpace=wrap;html=1;" vertex="1" parent="1">
          <mxGeometry x="3030" y="800" width="140" height="70" as="geometry" />
        </mxCell>
        <mxCell id="l33ZeKzNZCgtsfxWotkb-174" value="View Plans" style="ellipse;whiteSpace=wrap;html=1;" vertex="1" parent="1">
          <mxGeometry x="2760" y="700" width="140" height="70" as="geometry" />
        </mxCell>
        <mxCell id="l33ZeKzNZCgtsfxWotkb-175" value="" style="endArrow=classic;html=1;rounded=0;" edge="1" parent="1" source="l33ZeKzNZCgtsfxWotkb-152" target="l33ZeKzNZCgtsfxWotkb-174">
          <mxGeometry width="50" height="50" relative="1" as="geometry">
            <mxPoint x="2810" y="460" as="sourcePoint" />
            <mxPoint x="2860" y="410" as="targetPoint" />
          </mxGeometry>
        </mxCell>
        <mxCell id="l33ZeKzNZCgtsfxWotkb-180" value="&amp;lt;&amp;lt;include&amp;gt;&amp;gt;" style="edgeLabel;html=1;align=center;verticalAlign=middle;resizable=0;points=[];" vertex="1" connectable="0" parent="l33ZeKzNZCgtsfxWotkb-175">
          <mxGeometry x="-0.0907" y="-1" relative="1" as="geometry">
            <mxPoint as="offset" />
          </mxGeometry>
        </mxCell>
        <mxCell id="l33ZeKzNZCgtsfxWotkb-184" value="Handle Mangers Request" style="ellipse;whiteSpace=wrap;html=1;" vertex="1" parent="1">
          <mxGeometry x="2767.5" y="1240" width="140" height="70" as="geometry" />
        </mxCell>
        <mxCell id="l33ZeKzNZCgtsfxWotkb-189" value="View Infrastructure Info" style="ellipse;whiteSpace=wrap;html=1;" vertex="1" parent="1">
          <mxGeometry x="2495" y="360" width="140" height="70" as="geometry" />
        </mxCell>
        <mxCell id="l33ZeKzNZCgtsfxWotkb-193" value="View Roadmap Info" style="ellipse;whiteSpace=wrap;html=1;" vertex="1" parent="1">
          <mxGeometry x="2495" y="260" width="140" height="70" as="geometry" />
        </mxCell>
        <mxCell id="l33ZeKzNZCgtsfxWotkb-196" value="View Courses Info" style="ellipse;whiteSpace=wrap;html=1;" vertex="1" parent="1">
          <mxGeometry x="2495" y="455" width="140" height="70" as="geometry" />
        </mxCell>
        <mxCell id="l33ZeKzNZCgtsfxWotkb-199" value="View Financial Info" style="ellipse;whiteSpace=wrap;html=1;" vertex="1" parent="1">
          <mxGeometry x="2495" y="555" width="140" height="70" as="geometry" />
        </mxCell>
        <mxCell id="l33ZeKzNZCgtsfxWotkb-202" value="" style="rounded=0;whiteSpace=wrap;html=1;" vertex="1" parent="1">
          <mxGeometry x="2640" y="1468" width="730" height="1252" as="geometry" />
        </mxCell>
        <mxCell id="l33ZeKzNZCgtsfxWotkb-203" value="Managers System" style="text;html=1;align=center;verticalAlign=middle;resizable=0;points=[];autosize=1;strokeColor=none;fillColor=none;" vertex="1" parent="1">
          <mxGeometry x="2945" y="1468" width="120" height="30" as="geometry" />
        </mxCell>
        <mxCell id="l33ZeKzNZCgtsfxWotkb-204" style="rounded=0;orthogonalLoop=1;jettySize=auto;html=1;exitX=0.5;exitY=0.5;exitDx=0;exitDy=0;exitPerimeter=0;entryX=0.5;entryY=0;entryDx=0;entryDy=0;endArrow=none;endFill=0;" edge="1" source="l33ZeKzNZCgtsfxWotkb-208" target="l33ZeKzNZCgtsfxWotkb-209" parent="1">
          <mxGeometry relative="1" as="geometry">
            <Array as="points">
              <mxPoint x="2690" y="1658" />
            </Array>
          </mxGeometry>
        </mxCell>
        <mxCell id="l33ZeKzNZCgtsfxWotkb-276" style="rounded=0;orthogonalLoop=1;jettySize=auto;html=1;exitX=0.5;exitY=0.5;exitDx=0;exitDy=0;exitPerimeter=0;entryX=0;entryY=0.5;entryDx=0;entryDy=0;endArrow=none;endFill=0;" edge="1" parent="1" source="l33ZeKzNZCgtsfxWotkb-208" target="l33ZeKzNZCgtsfxWotkb-268">
          <mxGeometry relative="1" as="geometry" />
        </mxCell>
        <mxCell id="l33ZeKzNZCgtsfxWotkb-277" style="rounded=0;orthogonalLoop=1;jettySize=auto;html=1;exitX=0.5;exitY=0.5;exitDx=0;exitDy=0;exitPerimeter=0;entryX=0;entryY=0.5;entryDx=0;entryDy=0;endArrow=none;endFill=0;" edge="1" parent="1" source="l33ZeKzNZCgtsfxWotkb-208" target="l33ZeKzNZCgtsfxWotkb-265">
          <mxGeometry relative="1" as="geometry" />
        </mxCell>
        <mxCell id="l33ZeKzNZCgtsfxWotkb-278" style="rounded=0;orthogonalLoop=1;jettySize=auto;html=1;exitX=0.5;exitY=0.5;exitDx=0;exitDy=0;exitPerimeter=0;entryX=0;entryY=0.5;entryDx=0;entryDy=0;endArrow=none;endFill=0;" edge="1" parent="1" source="l33ZeKzNZCgtsfxWotkb-208" target="l33ZeKzNZCgtsfxWotkb-271">
          <mxGeometry relative="1" as="geometry" />
        </mxCell>
        <mxCell id="l33ZeKzNZCgtsfxWotkb-279" style="rounded=0;orthogonalLoop=1;jettySize=auto;html=1;exitX=0.5;exitY=0.5;exitDx=0;exitDy=0;exitPerimeter=0;entryX=0;entryY=0.5;entryDx=0;entryDy=0;endArrow=none;endFill=0;" edge="1" parent="1" source="l33ZeKzNZCgtsfxWotkb-208" target="l33ZeKzNZCgtsfxWotkb-219">
          <mxGeometry relative="1" as="geometry">
            <Array as="points">
              <mxPoint x="2620" y="1590" />
            </Array>
          </mxGeometry>
        </mxCell>
        <mxCell id="l33ZeKzNZCgtsfxWotkb-293" style="rounded=0;orthogonalLoop=1;jettySize=auto;html=1;exitX=0.5;exitY=0.5;exitDx=0;exitDy=0;exitPerimeter=0;entryX=0;entryY=0;entryDx=0;entryDy=0;endArrow=none;endFill=0;" edge="1" parent="1" source="l33ZeKzNZCgtsfxWotkb-208" target="l33ZeKzNZCgtsfxWotkb-280">
          <mxGeometry relative="1" as="geometry" />
        </mxCell>
        <mxCell id="l33ZeKzNZCgtsfxWotkb-303" style="rounded=0;orthogonalLoop=1;jettySize=auto;html=1;endArrow=none;endFill=0;entryX=0;entryY=0.5;entryDx=0;entryDy=0;exitX=0.5;exitY=0.5;exitDx=0;exitDy=0;exitPerimeter=0;" edge="1" parent="1" source="l33ZeKzNZCgtsfxWotkb-208" target="l33ZeKzNZCgtsfxWotkb-300">
          <mxGeometry relative="1" as="geometry">
            <mxPoint x="2709.1207504804424" y="2261.593200768708" as="targetPoint" />
          </mxGeometry>
        </mxCell>
        <mxCell id="l33ZeKzNZCgtsfxWotkb-306" style="rounded=0;orthogonalLoop=1;jettySize=auto;html=1;exitX=0.5;exitY=0.5;exitDx=0;exitDy=0;exitPerimeter=0;entryX=0;entryY=0.5;entryDx=0;entryDy=0;endArrow=none;endFill=0;" edge="1" parent="1" source="l33ZeKzNZCgtsfxWotkb-208" target="l33ZeKzNZCgtsfxWotkb-304">
          <mxGeometry relative="1" as="geometry" />
        </mxCell>
        <mxCell id="l33ZeKzNZCgtsfxWotkb-307" style="rounded=0;orthogonalLoop=1;jettySize=auto;html=1;exitX=0.5;exitY=0.5;exitDx=0;exitDy=0;exitPerimeter=0;entryX=0;entryY=0.5;entryDx=0;entryDy=0;endArrow=none;endFill=0;" edge="1" parent="1" source="l33ZeKzNZCgtsfxWotkb-208" target="l33ZeKzNZCgtsfxWotkb-305">
          <mxGeometry relative="1" as="geometry" />
        </mxCell>
        <mxCell id="l33ZeKzNZCgtsfxWotkb-311" style="rounded=0;orthogonalLoop=1;jettySize=auto;html=1;exitX=0.5;exitY=0.5;exitDx=0;exitDy=0;exitPerimeter=0;entryX=0;entryY=0.5;entryDx=0;entryDy=0;endArrow=none;endFill=0;" edge="1" parent="1" source="l33ZeKzNZCgtsfxWotkb-208" target="l33ZeKzNZCgtsfxWotkb-295">
          <mxGeometry relative="1" as="geometry" />
        </mxCell>
        <mxCell id="l33ZeKzNZCgtsfxWotkb-208" value="Academic Manager" style="shape=umlActor;verticalLabelPosition=bottom;verticalAlign=top;html=1;outlineConnect=0;" vertex="1" parent="1">
          <mxGeometry x="2470" y="1868" width="30" height="70" as="geometry" />
        </mxCell>
        <mxCell id="l33ZeKzNZCgtsfxWotkb-221" value="&amp;lt;&amp;lt;depends on&amp;gt;&amp;gt;" style="rounded=0;orthogonalLoop=1;jettySize=auto;html=1;exitX=0;exitY=0.5;exitDx=0;exitDy=0;dashed=1;" edge="1" parent="1" source="l33ZeKzNZCgtsfxWotkb-209" target="l33ZeKzNZCgtsfxWotkb-219">
          <mxGeometry relative="1" as="geometry" />
        </mxCell>
        <mxCell id="l33ZeKzNZCgtsfxWotkb-209" value="login" style="ellipse;whiteSpace=wrap;html=1;" vertex="1" parent="1">
          <mxGeometry x="2920" y="1528" width="140" height="70" as="geometry" />
        </mxCell>
        <mxCell id="l33ZeKzNZCgtsfxWotkb-210" value="&amp;lt;&amp;lt;depends on&amp;gt;&amp;gt;" style="edgeStyle=orthogonalEdgeStyle;rounded=0;orthogonalLoop=1;jettySize=auto;html=1;dashed=1;" edge="1" source="l33ZeKzNZCgtsfxWotkb-211" target="l33ZeKzNZCgtsfxWotkb-209" parent="1">
          <mxGeometry relative="1" as="geometry" />
        </mxCell>
        <mxCell id="l33ZeKzNZCgtsfxWotkb-211" value="Manage Profile" style="ellipse;whiteSpace=wrap;html=1;" vertex="1" parent="1">
          <mxGeometry x="3190" y="1528" width="140" height="70" as="geometry" />
        </mxCell>
        <mxCell id="l33ZeKzNZCgtsfxWotkb-218" value="Level 1" style="text;html=1;align=center;verticalAlign=middle;resizable=0;points=[];autosize=1;strokeColor=none;fillColor=none;" vertex="1" parent="1">
          <mxGeometry x="2975" y="1438" width="60" height="30" as="geometry" />
        </mxCell>
        <mxCell id="l33ZeKzNZCgtsfxWotkb-222" value="&amp;lt;&amp;lt;include&amp;gt;&amp;gt;" style="rounded=0;orthogonalLoop=1;jettySize=auto;html=1;exitX=1;exitY=1;exitDx=0;exitDy=0;entryX=0;entryY=0;entryDx=0;entryDy=0;dashed=1;" edge="1" parent="1" source="l33ZeKzNZCgtsfxWotkb-219" target="l33ZeKzNZCgtsfxWotkb-220">
          <mxGeometry relative="1" as="geometry" />
        </mxCell>
        <mxCell id="l33ZeKzNZCgtsfxWotkb-219" value="Register with Platform" style="ellipse;whiteSpace=wrap;html=1;" vertex="1" parent="1">
          <mxGeometry x="2675" y="1528" width="140" height="70" as="geometry" />
        </mxCell>
        <mxCell id="l33ZeKzNZCgtsfxWotkb-220" value="&lt;span data-lucid-content=&quot;{&amp;quot;t&amp;quot;:&amp;quot;Send Resume to Acadamic Manager&amp;quot;,&amp;quot;m&amp;quot;:[]}&quot; data-lucid-type=&quot;application/vnd.lucid.text&quot;&gt;&lt;span&gt;Send Resume&lt;/span&gt;&lt;/span&gt;" style="ellipse;whiteSpace=wrap;html=1;" vertex="1" parent="1">
          <mxGeometry x="2920" y="1628" width="140" height="70" as="geometry" />
        </mxCell>
        <mxCell id="l33ZeKzNZCgtsfxWotkb-224" value="&amp;lt;&amp;lt;extend&amp;gt;&amp;gt;" style="rounded=0;orthogonalLoop=1;jettySize=auto;html=1;exitX=0;exitY=0;exitDx=0;exitDy=0;entryX=1;entryY=1;entryDx=0;entryDy=0;dashed=1;" edge="1" parent="1" source="l33ZeKzNZCgtsfxWotkb-223" target="l33ZeKzNZCgtsfxWotkb-209">
          <mxGeometry relative="1" as="geometry" />
        </mxCell>
        <mxCell id="l33ZeKzNZCgtsfxWotkb-223" value="logout" style="ellipse;whiteSpace=wrap;html=1;" vertex="1" parent="1">
          <mxGeometry x="3190" y="1638" width="140" height="70" as="geometry" />
        </mxCell>
        <mxCell id="l33ZeKzNZCgtsfxWotkb-229" value="&amp;lt;&amp;lt;include&amp;gt;&amp;gt;" style="edgeStyle=orthogonalEdgeStyle;rounded=0;orthogonalLoop=1;jettySize=auto;html=1;exitX=1;exitY=0.5;exitDx=0;exitDy=0;dashed=1;" edge="1" source="l33ZeKzNZCgtsfxWotkb-225" parent="1">
          <mxGeometry relative="1" as="geometry">
            <mxPoint x="2450" y="2243" as="targetPoint" />
          </mxGeometry>
        </mxCell>
        <mxCell id="l33ZeKzNZCgtsfxWotkb-233" value="" style="rounded=0;whiteSpace=wrap;html=1;" vertex="1" parent="1">
          <mxGeometry x="1650" y="1468" width="480" height="870" as="geometry" />
        </mxCell>
        <mxCell id="l33ZeKzNZCgtsfxWotkb-234" value="Managers System" style="text;html=1;align=center;verticalAlign=middle;resizable=0;points=[];autosize=1;strokeColor=none;fillColor=none;" vertex="1" parent="1">
          <mxGeometry x="1825" y="1468" width="120" height="30" as="geometry" />
        </mxCell>
        <mxCell id="l33ZeKzNZCgtsfxWotkb-235" value="Level 0" style="text;html=1;align=center;verticalAlign=middle;resizable=0;points=[];autosize=1;strokeColor=none;fillColor=none;" vertex="1" parent="1">
          <mxGeometry x="1855" y="1438" width="60" height="30" as="geometry" />
        </mxCell>
        <mxCell id="l33ZeKzNZCgtsfxWotkb-237" style="rounded=0;orthogonalLoop=1;jettySize=auto;html=1;exitX=0.5;exitY=0.5;exitDx=0;exitDy=0;exitPerimeter=0;entryX=0;entryY=0;entryDx=0;entryDy=0;endArrow=none;endFill=0;" edge="1" source="l33ZeKzNZCgtsfxWotkb-240" target="l33ZeKzNZCgtsfxWotkb-247" parent="1">
          <mxGeometry relative="1" as="geometry" />
        </mxCell>
        <mxCell id="l33ZeKzNZCgtsfxWotkb-238" style="rounded=0;orthogonalLoop=1;jettySize=auto;html=1;exitX=0.5;exitY=0.5;exitDx=0;exitDy=0;exitPerimeter=0;entryX=0;entryY=0;entryDx=0;entryDy=0;endArrow=none;endFill=0;" edge="1" source="l33ZeKzNZCgtsfxWotkb-240" target="l33ZeKzNZCgtsfxWotkb-245" parent="1">
          <mxGeometry relative="1" as="geometry" />
        </mxCell>
        <mxCell id="l33ZeKzNZCgtsfxWotkb-239" style="rounded=0;orthogonalLoop=1;jettySize=auto;html=1;exitX=0.5;exitY=0.5;exitDx=0;exitDy=0;exitPerimeter=0;entryX=0.5;entryY=0;entryDx=0;entryDy=0;endArrow=none;endFill=0;" edge="1" source="l33ZeKzNZCgtsfxWotkb-240" target="l33ZeKzNZCgtsfxWotkb-250" parent="1">
          <mxGeometry relative="1" as="geometry" />
        </mxCell>
        <mxCell id="l33ZeKzNZCgtsfxWotkb-252" style="rounded=0;orthogonalLoop=1;jettySize=auto;html=1;exitX=0.5;exitY=0.5;exitDx=0;exitDy=0;exitPerimeter=0;entryX=0;entryY=0;entryDx=0;entryDy=0;endArrow=none;endFill=0;" edge="1" parent="1" source="l33ZeKzNZCgtsfxWotkb-240" target="l33ZeKzNZCgtsfxWotkb-251">
          <mxGeometry relative="1" as="geometry" />
        </mxCell>
        <mxCell id="l33ZeKzNZCgtsfxWotkb-259" style="rounded=0;orthogonalLoop=1;jettySize=auto;html=1;exitX=0.5;exitY=0.5;exitDx=0;exitDy=0;exitPerimeter=0;entryX=0;entryY=0.5;entryDx=0;entryDy=0;endArrow=none;endFill=0;" edge="1" parent="1" source="l33ZeKzNZCgtsfxWotkb-240" target="l33ZeKzNZCgtsfxWotkb-258">
          <mxGeometry relative="1" as="geometry" />
        </mxCell>
        <mxCell id="l33ZeKzNZCgtsfxWotkb-260" style="rounded=0;orthogonalLoop=1;jettySize=auto;html=1;exitX=0.5;exitY=0.5;exitDx=0;exitDy=0;exitPerimeter=0;entryX=0;entryY=1;entryDx=0;entryDy=0;endArrow=none;endFill=0;" edge="1" parent="1" source="l33ZeKzNZCgtsfxWotkb-240" target="l33ZeKzNZCgtsfxWotkb-255">
          <mxGeometry relative="1" as="geometry">
            <Array as="points">
              <mxPoint x="1720" y="1660" />
            </Array>
          </mxGeometry>
        </mxCell>
        <mxCell id="l33ZeKzNZCgtsfxWotkb-240" value="Academic Manager" style="shape=umlActor;verticalLabelPosition=bottom;verticalAlign=top;html=1;outlineConnect=0;" vertex="1" parent="1">
          <mxGeometry x="1480" y="1813" width="30" height="57" as="geometry" />
        </mxCell>
        <mxCell id="l33ZeKzNZCgtsfxWotkb-244" value="Manage Permissions" style="ellipse;whiteSpace=wrap;html=1;" vertex="1" parent="1">
          <mxGeometry x="1950" y="1903" width="140" height="70" as="geometry" />
        </mxCell>
        <mxCell id="l33ZeKzNZCgtsfxWotkb-245" value="Define Plans" style="ellipse;whiteSpace=wrap;html=1;" vertex="1" parent="1">
          <mxGeometry x="1685" y="1878" width="140" height="70" as="geometry" />
        </mxCell>
        <mxCell id="l33ZeKzNZCgtsfxWotkb-246" value="Manage Requests" style="ellipse;whiteSpace=wrap;html=1;" vertex="1" parent="1">
          <mxGeometry x="1950" y="2098" width="140" height="70" as="geometry" />
        </mxCell>
        <mxCell id="l33ZeKzNZCgtsfxWotkb-247" value="Monitoring" style="ellipse;whiteSpace=wrap;html=1;" vertex="1" parent="1">
          <mxGeometry x="1685" y="1708" width="140" height="70" as="geometry" />
        </mxCell>
        <mxCell id="l33ZeKzNZCgtsfxWotkb-248" value="&amp;lt;&amp;lt;include&amp;gt;&amp;gt;" style="edgeStyle=orthogonalEdgeStyle;rounded=0;orthogonalLoop=1;jettySize=auto;html=1;exitX=1;exitY=0.5;exitDx=0;exitDy=0;dashed=1;" edge="1" source="l33ZeKzNZCgtsfxWotkb-250" target="l33ZeKzNZCgtsfxWotkb-244" parent="1">
          <mxGeometry relative="1" as="geometry" />
        </mxCell>
        <mxCell id="l33ZeKzNZCgtsfxWotkb-249" value="&amp;lt;&amp;lt;include&amp;gt;&amp;gt;" style="rounded=0;orthogonalLoop=1;jettySize=auto;html=1;exitX=1;exitY=1;exitDx=0;exitDy=0;entryX=0;entryY=0;entryDx=0;entryDy=0;dashed=1;" edge="1" source="l33ZeKzNZCgtsfxWotkb-250" target="l33ZeKzNZCgtsfxWotkb-246" parent="1">
          <mxGeometry relative="1" as="geometry" />
        </mxCell>
        <mxCell id="l33ZeKzNZCgtsfxWotkb-250" value="Infrastructure Management" style="ellipse;whiteSpace=wrap;html=1;" vertex="1" parent="1">
          <mxGeometry x="1685" y="2048" width="140" height="70" as="geometry" />
        </mxCell>
        <mxCell id="l33ZeKzNZCgtsfxWotkb-251" value="Manage Maps" style="ellipse;whiteSpace=wrap;html=1;" vertex="1" parent="1">
          <mxGeometry x="1685" y="2218" width="140" height="70" as="geometry" />
        </mxCell>
        <mxCell id="l33ZeKzNZCgtsfxWotkb-254" value="&amp;lt;&amp;lt;depends on&amp;gt;&amp;gt;" style="edgeStyle=orthogonalEdgeStyle;rounded=0;orthogonalLoop=1;jettySize=auto;html=1;exitX=0;exitY=0.5;exitDx=0;exitDy=0;" edge="1" parent="1" source="l33ZeKzNZCgtsfxWotkb-255" target="l33ZeKzNZCgtsfxWotkb-258">
          <mxGeometry relative="1" as="geometry" />
        </mxCell>
        <mxCell id="l33ZeKzNZCgtsfxWotkb-255" value="login" style="ellipse;whiteSpace=wrap;html=1;" vertex="1" parent="1">
          <mxGeometry x="1955" y="1518" width="140" height="70" as="geometry" />
        </mxCell>
        <mxCell id="l33ZeKzNZCgtsfxWotkb-256" value="&amp;lt;&amp;lt;depends on&amp;gt;&amp;gt;" style="edgeStyle=orthogonalEdgeStyle;rounded=0;orthogonalLoop=1;jettySize=auto;html=1;dashed=1;" edge="1" parent="1" source="l33ZeKzNZCgtsfxWotkb-257" target="l33ZeKzNZCgtsfxWotkb-255">
          <mxGeometry relative="1" as="geometry" />
        </mxCell>
        <mxCell id="l33ZeKzNZCgtsfxWotkb-257" value="Manage Profile" style="ellipse;whiteSpace=wrap;html=1;" vertex="1" parent="1">
          <mxGeometry x="1955" y="1708" width="140" height="70" as="geometry" />
        </mxCell>
        <mxCell id="l33ZeKzNZCgtsfxWotkb-258" value="Register with Platform" style="ellipse;whiteSpace=wrap;html=1;" vertex="1" parent="1">
          <mxGeometry x="1685" y="1518" width="140" height="70" as="geometry" />
        </mxCell>
        <mxCell id="l33ZeKzNZCgtsfxWotkb-265" value="View Infrastructure Info" style="ellipse;whiteSpace=wrap;html=1;" vertex="1" parent="1">
          <mxGeometry x="2920" y="1830" width="140" height="70" as="geometry" />
        </mxCell>
        <mxCell id="l33ZeKzNZCgtsfxWotkb-268" value="View Roadmap Info" style="ellipse;whiteSpace=wrap;html=1;" vertex="1" parent="1">
          <mxGeometry x="2920" y="1730" width="140" height="70" as="geometry" />
        </mxCell>
        <mxCell id="l33ZeKzNZCgtsfxWotkb-271" value="View Courses Info" style="ellipse;whiteSpace=wrap;html=1;" vertex="1" parent="1">
          <mxGeometry x="2920" y="1925" width="140" height="70" as="geometry" />
        </mxCell>
        <mxCell id="l33ZeKzNZCgtsfxWotkb-280" value="Develop Tactical Plans" style="ellipse;whiteSpace=wrap;html=1;" vertex="1" parent="1">
          <mxGeometry x="2675" y="2010" width="140" height="75" as="geometry" />
        </mxCell>
        <mxCell id="l33ZeKzNZCgtsfxWotkb-281" style="rounded=0;orthogonalLoop=1;jettySize=auto;html=1;exitX=0;exitY=0.5;exitDx=0;exitDy=0;entryX=1;entryY=0.5;entryDx=0;entryDy=0;dashed=1;" edge="1" parent="1" source="l33ZeKzNZCgtsfxWotkb-283" target="l33ZeKzNZCgtsfxWotkb-290">
          <mxGeometry relative="1" as="geometry">
            <mxPoint x="2970" y="1825" as="targetPoint" />
          </mxGeometry>
        </mxCell>
        <mxCell id="l33ZeKzNZCgtsfxWotkb-282" value="&amp;lt;&amp;lt;extend&amp;gt;&amp;gt;" style="edgeLabel;html=1;align=center;verticalAlign=middle;resizable=0;points=[];" vertex="1" connectable="0" parent="l33ZeKzNZCgtsfxWotkb-281">
          <mxGeometry x="0.0209" y="2" relative="1" as="geometry">
            <mxPoint as="offset" />
          </mxGeometry>
        </mxCell>
        <mxCell id="l33ZeKzNZCgtsfxWotkb-283" value="Add Plan" style="ellipse;whiteSpace=wrap;html=1;" vertex="1" parent="1">
          <mxGeometry x="3210" y="1925" width="140" height="70" as="geometry" />
        </mxCell>
        <mxCell id="l33ZeKzNZCgtsfxWotkb-284" style="rounded=0;orthogonalLoop=1;jettySize=auto;html=1;exitX=0;exitY=0.5;exitDx=0;exitDy=0;dashed=1;" edge="1" parent="1" source="l33ZeKzNZCgtsfxWotkb-286" target="l33ZeKzNZCgtsfxWotkb-290">
          <mxGeometry relative="1" as="geometry" />
        </mxCell>
        <mxCell id="l33ZeKzNZCgtsfxWotkb-285" value="&amp;lt;&amp;lt;extend&amp;gt;&amp;gt;" style="edgeLabel;html=1;align=center;verticalAlign=middle;resizable=0;points=[];" vertex="1" connectable="0" parent="l33ZeKzNZCgtsfxWotkb-284">
          <mxGeometry x="-0.1627" y="1" relative="1" as="geometry">
            <mxPoint as="offset" />
          </mxGeometry>
        </mxCell>
        <mxCell id="l33ZeKzNZCgtsfxWotkb-286" value="Edit Plan" style="ellipse;whiteSpace=wrap;html=1;" vertex="1" parent="1">
          <mxGeometry x="3210" y="2025" width="140" height="70" as="geometry" />
        </mxCell>
        <mxCell id="l33ZeKzNZCgtsfxWotkb-287" style="rounded=0;orthogonalLoop=1;jettySize=auto;html=1;exitX=0;exitY=0.5;exitDx=0;exitDy=0;entryX=1;entryY=0.5;entryDx=0;entryDy=0;dashed=1;" edge="1" parent="1" source="l33ZeKzNZCgtsfxWotkb-289" target="l33ZeKzNZCgtsfxWotkb-290">
          <mxGeometry relative="1" as="geometry">
            <mxPoint x="2970" y="1825" as="targetPoint" />
          </mxGeometry>
        </mxCell>
        <mxCell id="l33ZeKzNZCgtsfxWotkb-288" value="&amp;lt;&amp;lt;extend&amp;gt;&amp;gt;" style="edgeLabel;html=1;align=center;verticalAlign=middle;resizable=0;points=[];" vertex="1" connectable="0" parent="l33ZeKzNZCgtsfxWotkb-287">
          <mxGeometry x="-0.02" y="-4" relative="1" as="geometry">
            <mxPoint as="offset" />
          </mxGeometry>
        </mxCell>
        <mxCell id="l33ZeKzNZCgtsfxWotkb-289" value="Remove Plan" style="ellipse;whiteSpace=wrap;html=1;" vertex="1" parent="1">
          <mxGeometry x="3210" y="2135" width="140" height="70" as="geometry" />
        </mxCell>
        <mxCell id="l33ZeKzNZCgtsfxWotkb-290" value="Check Existing Plans&lt;br&gt;&amp;amp;&amp;amp;&lt;br&gt;View Plans" style="ellipse;whiteSpace=wrap;html=1;" vertex="1" parent="1">
          <mxGeometry x="2945" y="2025" width="140" height="70" as="geometry" />
        </mxCell>
        <mxCell id="l33ZeKzNZCgtsfxWotkb-291" value="" style="endArrow=classic;html=1;rounded=0;" edge="1" parent="1" source="l33ZeKzNZCgtsfxWotkb-280" target="l33ZeKzNZCgtsfxWotkb-290">
          <mxGeometry width="50" height="50" relative="1" as="geometry">
            <mxPoint x="2990" y="1795" as="sourcePoint" />
            <mxPoint x="3040" y="1745" as="targetPoint" />
          </mxGeometry>
        </mxCell>
        <mxCell id="l33ZeKzNZCgtsfxWotkb-292" value="&amp;lt;&amp;lt;include&amp;gt;&amp;gt;" style="edgeLabel;html=1;align=center;verticalAlign=middle;resizable=0;points=[];" vertex="1" connectable="0" parent="l33ZeKzNZCgtsfxWotkb-291">
          <mxGeometry x="-0.0907" y="-1" relative="1" as="geometry">
            <mxPoint as="offset" />
          </mxGeometry>
        </mxCell>
        <mxCell id="l33ZeKzNZCgtsfxWotkb-295" value="Handle Request" style="ellipse;whiteSpace=wrap;html=1;" vertex="1" parent="1">
          <mxGeometry x="2790" y="2410" width="140" height="70" as="geometry" />
        </mxCell>
        <mxCell id="l33ZeKzNZCgtsfxWotkb-300" value="Add Permissions" style="ellipse;whiteSpace=wrap;html=1;" vertex="1" parent="1">
          <mxGeometry x="2800" y="2148" width="140" height="70" as="geometry" />
        </mxCell>
        <mxCell id="l33ZeKzNZCgtsfxWotkb-309" value="&amp;lt;&amp;lt;include&amp;gt;&amp;gt;" style="edgeStyle=orthogonalEdgeStyle;rounded=0;orthogonalLoop=1;jettySize=auto;html=1;exitX=1;exitY=0.5;exitDx=0;exitDy=0;" edge="1" parent="1" source="l33ZeKzNZCgtsfxWotkb-304" target="l33ZeKzNZCgtsfxWotkb-308">
          <mxGeometry relative="1" as="geometry" />
        </mxCell>
        <mxCell id="l33ZeKzNZCgtsfxWotkb-304" value="Remove Permissions" style="ellipse;whiteSpace=wrap;html=1;" vertex="1" parent="1">
          <mxGeometry x="2800" y="2240" width="140" height="70" as="geometry" />
        </mxCell>
        <mxCell id="l33ZeKzNZCgtsfxWotkb-305" value="Update Permissions" style="ellipse;whiteSpace=wrap;html=1;" vertex="1" parent="1">
          <mxGeometry x="2800" y="2320" width="140" height="70" as="geometry" />
        </mxCell>
        <mxCell id="l33ZeKzNZCgtsfxWotkb-308" value="Check Existing Permissions" style="ellipse;whiteSpace=wrap;html=1;" vertex="1" parent="1">
          <mxGeometry x="2990" y="2240" width="140" height="70" as="geometry" />
        </mxCell>
        <mxCell id="l33ZeKzNZCgtsfxWotkb-312" value="Create Roadmap" style="ellipse;whiteSpace=wrap;html=1;" vertex="1" parent="1">
          <mxGeometry x="2790" y="2530" width="140" height="70" as="geometry" />
        </mxCell>
        <mxCell id="l33ZeKzNZCgtsfxWotkb-317" value="&amp;lt;&amp;lt;include" style="edgeStyle=orthogonalEdgeStyle;rounded=0;orthogonalLoop=1;jettySize=auto;html=1;exitX=1;exitY=0.5;exitDx=0;exitDy=0;dashed=1;" edge="1" parent="1" source="l33ZeKzNZCgtsfxWotkb-313" target="l33ZeKzNZCgtsfxWotkb-316">
          <mxGeometry relative="1" as="geometry" />
        </mxCell>
        <mxCell id="l33ZeKzNZCgtsfxWotkb-313" value="Remove Roadmap" style="ellipse;whiteSpace=wrap;html=1;" vertex="1" parent="1">
          <mxGeometry x="2790" y="2610" width="140" height="70" as="geometry" />
        </mxCell>
        <mxCell id="l33ZeKzNZCgtsfxWotkb-316" value="Check Existing Courses" style="ellipse;whiteSpace=wrap;html=1;" vertex="1" parent="1">
          <mxGeometry x="3020" y="2610" width="140" height="70" as="geometry" />
        </mxCell>
      </root>
    </mxGraphModel>
  </diagram>
</mxfile>
